<svg width="50" height="50" viewBox="0 0 50 50" fill="none" xmlns="http://www.w3.org/2000/svg">
<g clip-path="url(#clip0)">
<path d="M29.4957 3.43898C25.1076 0.905405 19.5054 2.40599 16.9714 6.79495L1.24472 34.0342C-2.81374 41.0636 3.68982 49.583 11.5578 47.4744C13.9233 46.8405 15.9004 45.3235 17.1249 43.2026L32.8515 15.9632C35.3794 11.5852 33.8739 5.96673 29.4957 3.43898Z" fill="#FCBC03"/>
<path d="M18.0402 36.2454C16.7288 31.3512 11.7066 28.4506 6.81117 29.7623C-1.0596 31.8713 -2.42621 42.5018 4.59997 46.5585C11.6099 50.6058 20.1605 44.1588 18.0402 36.2454Z" fill="#A0ED83"/>
<path d="M48.7735 34.0342L33.0468 6.79495C31.8224 4.67403 29.8452 3.15698 27.4797 2.52309C19.6093 0.41382 13.11 8.93706 17.1666 15.9633L32.8933 43.2027C35.4262 47.5898 41.0279 49.0931 45.4176 46.5586C49.7958 44.0308 51.3013 38.4124 48.7735 34.0342Z" fill="#4385F5"/>
<path d="M18.0402 36.2454C16.7288 31.3512 11.7066 28.4506 6.81117 29.7623C-1.0596 31.8713 -2.42621 42.5018 4.59997 46.5585C11.6099 50.6058 20.1605 44.1588 18.0402 36.2454Z" fill="#34A853"/>
</g>
<defs>
<clipPath id="clip0">
<rect width="50" height="50" fill="white"/>
</clipPath>
</defs>
</svg>
