<svg width="50" height="50" viewBox="0 0 50 50" fill="none" xmlns="http://www.w3.org/2000/svg">
<path d="M31.8965 12.9942C33.2427 12.9942 34.3379 11.899 34.3379 10.5528C34.3379 9.20664 33.2427 8.11133 31.8965 8.11133C30.5503 8.11133 29.4551 9.20664 29.4551 10.5528C29.4551 11.1026 29.6379 11.6104 29.9458 12.019L25.9345 17.6246C25.6951 17.546 25.4397 17.5028 25.1743 17.5028C24.5328 17.5028 23.9486 17.752 23.5125 18.158L20.8388 16.6408C20.8744 16.4752 20.8936 16.3035 20.8936 16.1274C20.8936 14.7812 19.7983 13.686 18.4521 13.686C17.106 13.686 16.0107 14.7812 16.0107 16.1274C16.0107 16.3035 16.0299 16.4752 16.0655 16.6408L13.3918 18.158C12.9557 17.752 12.3715 17.5029 11.73 17.5029C10.3838 17.5029 9.28857 18.5982 9.28857 19.9444C9.28857 21.2906 10.3838 22.3859 11.73 22.3859C13.0762 22.3859 14.1714 21.2906 14.1714 19.9444C14.1714 19.7684 14.1522 19.5967 14.1166 19.4311L16.7903 17.9139C17.2265 18.3199 17.8106 18.569 18.4521 18.569C19.0937 18.569 19.6777 18.3199 20.114 17.914L22.7877 19.4312C22.7521 19.5968 22.7329 19.7685 22.7329 19.9445C22.7329 21.2907 23.8281 22.386 25.1743 22.386C26.5206 22.386 27.6158 21.2907 27.6158 19.9445C27.6158 19.3946 27.4329 18.8867 27.125 18.4781L31.1363 12.8726C31.3756 12.9511 31.6311 12.9942 31.8965 12.9942ZM31.8965 9.57617C32.435 9.57617 32.873 10.0143 32.873 10.5528C32.873 11.0913 32.435 11.5294 31.8965 11.5294C31.358 11.5294 30.9199 11.0913 30.9199 10.5528C30.9198 10.0143 31.3579 9.57617 31.8965 9.57617ZM11.7297 20.9209C11.1912 20.9209 10.7531 20.4828 10.7531 19.9442C10.7531 19.4057 11.1912 18.9676 11.7297 18.9676C12.2682 18.9676 12.7063 19.4057 12.7063 19.9442C12.7063 20.4828 12.2682 20.9209 11.7297 20.9209ZM18.452 17.104C17.9135 17.104 17.4754 16.6659 17.4754 16.1273C17.4754 15.5889 17.9135 15.1508 18.452 15.1508C18.9904 15.1508 19.4285 15.5889 19.4285 16.1273C19.4286 16.6659 18.9904 17.104 18.452 17.104ZM25.1742 20.9209C24.6357 20.9209 24.1977 20.4828 24.1977 19.9442C24.1977 19.4057 24.6357 18.9676 25.1742 18.9676C25.7128 18.9676 26.1509 19.4057 26.1509 19.9442C26.1509 20.4828 25.7127 20.9209 25.1742 20.9209Z" fill="black"/>
<path d="M40.898 36.8129H35.7725H7.8543H2.07178C1.73711 36.8129 1.46484 36.5406 1.46484 36.206V5.98926C1.46484 5.65459 1.73711 5.38232 2.07178 5.38232H5.52451C5.929 5.38232 6.25693 5.05449 6.25693 4.6499C6.25693 4.24531 5.929 3.91748 5.52451 3.91748H2.07178C0.929395 3.91748 0 4.84688 0 5.98926V36.206C0 37.3483 0.929395 38.2777 2.07178 38.2777H7.12188V39.8896C7.12188 40.8079 7.86895 41.555 8.78721 41.555H16.1187L12.6675 48.2931C12.4831 48.6531 12.6254 49.0944 12.9854 49.2789C13.0923 49.3337 13.2063 49.3596 13.3188 49.3596C13.5849 49.3596 13.8416 49.2141 13.9712 48.9608L17.7645 41.555H25.8623L29.6556 48.9608C29.7853 49.2141 30.0419 49.3596 30.308 49.3596C30.4204 49.3596 30.5345 49.3335 30.6413 49.2789C31.0014 49.0944 31.1438 48.6531 30.9593 48.2931L27.5081 41.555H34.8396C35.7578 41.555 36.5049 40.808 36.5049 39.8896V38.2777H40.898C41.3025 38.2777 41.6305 37.9499 41.6305 37.5453C41.6305 37.1407 41.3025 36.8129 40.898 36.8129ZM35.04 39.8896C35.04 40.0002 34.9501 40.0901 34.8396 40.0901H8.78721C8.67666 40.0901 8.58672 40.0002 8.58672 39.8896V38.2777H35.04V39.8896Z" fill="black"/>
<path d="M8.45459 5.38237H18.4812H25.1463H41.5553C41.8899 5.38237 42.1622 5.65464 42.1622 5.98931V12.9533C42.1622 13.3579 42.4901 13.6857 42.8946 13.6857C43.2991 13.6857 43.6271 13.3579 43.6271 12.9533V5.98931C43.6271 4.84692 42.6977 3.91753 41.5553 3.91753H25.8788V2.47788C25.8788 1.4647 25.0545 0.640381 24.0412 0.640381H19.5863C18.5731 0.640381 17.7487 1.4647 17.7487 2.47788V3.91753H8.45459C8.0501 3.91753 7.72217 4.24536 7.72217 4.64995C7.72217 5.05454 8.0501 5.38237 8.45459 5.38237ZM19.2136 2.47788C19.2136 2.27241 19.3808 2.10522 19.5863 2.10522H24.0412C24.2467 2.10522 24.414 2.27241 24.414 2.47788V3.91753H19.2137V2.47788H19.2136Z" fill="black"/>
<path d="M10.2446 26.1304C9.84014 26.1304 9.51221 26.4582 9.51221 26.8628V33.3347C9.51221 33.7393 9.84014 34.0671 10.2446 34.0671H13.216C13.6205 34.0671 13.9484 33.7393 13.9484 33.3347V26.8628C13.9484 26.4582 13.6205 26.1304 13.216 26.1304H10.2446ZM12.4836 32.6023H10.977V27.5953H12.4836V32.6023Z" fill="black"/>
<path d="M16.9668 22.3875C16.5623 22.3875 16.2344 22.7153 16.2344 23.1199V33.3348C16.2344 33.7394 16.5623 34.0672 16.9668 34.0672H19.9382C20.3427 34.0672 20.6706 33.7394 20.6706 33.3348V23.1199C20.6706 22.7153 20.3427 22.3875 19.9382 22.3875H16.9668ZM19.2059 32.6024H17.6993V23.8523H19.2059V32.6024Z" fill="black"/>
<path d="M23.6885 26.1304C23.284 26.1304 22.9561 26.4582 22.9561 26.8628V33.3347C22.9561 33.7393 23.284 34.0671 23.6885 34.0671H26.6599C27.0644 34.0671 27.3923 33.7393 27.3923 33.3347V26.8628C27.3923 26.4582 27.0644 26.1304 26.6599 26.1304H23.6885ZM25.9274 32.6023H24.4209V27.5953H25.9274V32.6023Z" fill="black"/>
<path d="M30.4106 30.4524C30.0062 30.4524 29.6782 30.7802 29.6782 31.1848V33.3349C29.6782 33.7395 30.0062 34.0673 30.4106 34.0673H33.382C33.7865 34.0673 34.1145 33.7395 34.1145 33.3349C34.1145 32.9303 33.7865 32.6025 33.382 32.6025H31.1431V31.1848C31.1431 30.7802 30.8151 30.4524 30.4106 30.4524Z" fill="black"/>
<path d="M49.6262 37.5017L45.4243 30.2238C46.4889 29.0891 47.2641 27.7027 47.6781 26.1574C48.3399 23.6875 48.0003 21.1077 46.7218 18.8933C44.0825 14.3217 38.2162 12.7501 33.6449 15.3893C29.0735 18.0284 27.5018 23.8948 30.141 28.4661C31.4195 30.6806 33.4839 32.2646 35.9537 32.9265C36.7785 33.1475 37.6153 33.2568 38.4469 33.2568C39.1736 33.2568 39.8962 33.1732 40.6028 33.0077L44.8038 40.2859C45.3188 41.1782 46.2564 41.6775 47.2195 41.6774C47.6915 41.6774 48.1696 41.5574 48.607 41.305C49.466 40.8092 49.9997 39.8847 49.9997 38.8923C49.9997 38.4061 49.8706 37.9253 49.6262 37.5017ZM36.3328 31.5115C34.2409 30.951 32.4924 29.6093 31.4095 27.7337C29.1741 23.8618 30.5055 18.8933 34.3772 16.6578C35.651 15.9225 37.0429 15.5733 38.4177 15.5733C41.2219 15.5733 43.9531 17.0277 45.4531 19.6257C46.5359 21.5013 46.8236 23.6863 46.2631 25.7782C45.7025 27.8702 44.3608 29.6186 42.4853 30.7015C40.6098 31.7844 38.4248 32.0719 36.3328 31.5115ZM47.8749 40.0363C47.2447 40.4001 46.4361 40.1835 46.0726 39.5536L42.0308 32.5513C42.4358 32.386 42.8325 32.1926 43.2179 31.9701C43.6035 31.7475 43.9688 31.4996 44.3146 31.2313L48.3575 38.2339C48.4735 38.4352 48.5349 38.6629 48.5349 38.8924C48.5349 39.3629 48.2819 39.8013 47.8749 40.0363Z" fill="black"/>
<path d="M45.0724 25.7431C45.5895 24.0775 45.4664 22.2943 44.7257 20.722C44.5532 20.356 44.1169 20.1992 43.751 20.3715C43.3849 20.544 43.2281 20.9803 43.4006 21.3462C43.9848 22.5865 44.0818 23.9936 43.6735 25.3086C43.263 26.6309 42.3761 27.7406 41.1762 28.4333C39.9064 29.1665 38.427 29.3611 37.0109 28.9817C35.5947 28.6022 34.4109 27.6939 33.6779 26.4242C32.1645 23.803 33.0659 20.4393 35.6871 18.9259C37.6036 17.8196 39.982 17.9674 41.7468 19.3026C42.0694 19.5467 42.5287 19.4831 42.7727 19.1605C43.0168 18.8379 42.9532 18.3786 42.6306 18.1345C40.3951 16.443 37.382 16.2558 34.9546 17.6573C33.346 18.586 32.1953 20.0856 31.7145 21.8797C31.2338 23.6739 31.4806 25.5479 32.4093 27.1565C33.338 28.7652 34.8376 29.9158 36.6317 30.3966C37.2309 30.5572 37.8389 30.6366 38.4429 30.6366C39.6477 30.6366 40.8371 30.3205 41.9085 29.7019C43.4287 28.8244 44.5523 27.4185 45.0724 25.7431Z" fill="black"/>
</svg>
