<svg width="51" height="50" viewBox="0 0 51 50" fill="none" xmlns="http://www.w3.org/2000/svg">
<path d="M5.5752 25.7812H27.3616V42.9688H5.5752V25.7812Z" fill="#AAE1F9"/>
<path d="M3.24121 42.9688H29.6962V44.5312C29.6962 45.3601 29.3683 46.1549 28.7846 46.741C28.2009 47.327 27.4093 47.6562 26.5838 47.6562H6.35356C5.52811 47.6562 4.73647 47.327 4.1528 46.741C3.56912 46.1549 3.24121 45.3601 3.24121 44.5312V42.9688Z" fill="#F9E109"/>
<path d="M8.68754 32.0313V25.7812H5.5752V42.9688H27.3616V39.8438H16.4684C14.4048 39.8438 12.4257 39.0207 10.9665 37.5555C9.50731 36.0904 8.68754 34.1033 8.68754 32.0313Z" fill="#57B7EB"/>
<path d="M7.90973 45.3125C7.29065 45.3125 6.69692 45.0656 6.25916 44.626C5.8214 44.1865 5.57547 43.5904 5.57547 42.9688H3.24121V44.5312C3.24121 45.3601 3.56912 46.1549 4.1528 46.741C4.73647 47.327 5.52811 47.6562 6.35356 47.6562H26.5838C27.2721 47.654 27.9402 47.4228 28.4836 46.9987C29.0271 46.5746 29.4152 45.9816 29.5872 45.3125H7.90973Z" fill="#FCBC04"/>
<path d="M46.8136 26.5625H37.4766C36.6171 26.5625 35.9204 27.2621 35.9204 28.125V37.5C35.9204 38.3629 36.6171 39.0625 37.4766 39.0625H46.8136C47.6731 39.0625 48.3698 38.3629 48.3698 37.5V28.125C48.3698 27.2621 47.6731 26.5625 46.8136 26.5625Z" fill="#C4F236"/>
<path d="M42.1453 35.1563C43.4345 35.1563 44.4796 34.1069 44.4796 32.8125C44.4796 31.5181 43.4345 30.4688 42.1453 30.4688C40.8561 30.4688 39.811 31.5181 39.811 32.8125C39.811 34.1069 40.8561 35.1563 42.1453 35.1563Z" fill="#57B7EB"/>
<path d="M38.2547 30.4688V26.5625H37.4766C37.0639 26.5625 36.668 26.7271 36.3762 27.0201C36.0844 27.3132 35.9204 27.7106 35.9204 28.125V37.5C35.9204 37.9144 36.0844 38.3118 36.3762 38.6049C36.668 38.8979 37.0639 39.0625 37.4766 39.0625H46.8136C47.2263 39.0625 47.6222 38.8979 47.914 38.6049C48.2058 38.3118 48.3698 37.9144 48.3698 37.5V36.7188H44.4794C42.8285 36.7188 41.2452 36.0603 40.0778 34.8882C38.9105 33.7161 38.2547 32.1264 38.2547 30.4688Z" fill="#A1D51C"/>
<path d="M42.9236 32.8125C43.3533 32.8125 43.7017 32.4627 43.7017 32.0313C43.7017 31.5998 43.3533 31.25 42.9236 31.25C42.4939 31.25 42.1455 31.5998 42.1455 32.0313C42.1455 32.4627 42.4939 32.8125 42.9236 32.8125Z" fill="#AAE1F9"/>
<path d="M3.24121 9.375H12.5783V21.875H3.24121V9.375Z" fill="#C4F236"/>
<path d="M21.9151 14.0625C25.3529 14.0625 28.1398 11.2643 28.1398 7.8125C28.1398 4.36072 25.3529 1.5625 21.9151 1.5625C18.4773 1.5625 15.6904 4.36072 15.6904 7.8125C15.6904 11.2643 18.4773 14.0625 21.9151 14.0625Z" fill="#F89C8D"/>
<path d="M20.3589 10.1562V5.46875L25.0274 7.8125L20.3589 10.1562Z" fill="#AAE1F9"/>
<path d="M24.2495 11.7188C22.5986 11.7188 21.0153 11.0603 19.8479 9.88817C18.6806 8.71607 18.0248 7.12636 18.0248 5.46875C18.0228 4.38596 18.3045 3.32169 18.8418 2.38281C18.0219 2.86639 17.3233 3.53211 16.7996 4.32889C16.2758 5.12568 15.9408 6.03235 15.8203 6.97933C15.6997 7.92632 15.7968 8.88845 16.1042 9.79189C16.4115 10.6953 16.9209 11.5161 17.5932 12.1911C18.2655 12.8662 19.083 13.3777 19.9827 13.6862C20.8825 13.9948 21.8408 14.0923 22.7839 13.9713C23.7271 13.8503 24.6301 13.5139 25.4236 12.988C26.2172 12.4621 26.8802 11.7607 27.3618 10.9375C26.4115 11.47 25.3375 11.7396 24.2495 11.7188Z" fill="#F8664F"/>
<path d="M46.8136 2.34375H37.4766C36.6171 2.34375 35.9204 3.04331 35.9204 3.90625V13.2812C35.9204 14.1442 36.6171 14.8438 37.4766 14.8438H46.8136C47.6731 14.8438 48.3698 14.1442 48.3698 13.2812V3.90625C48.3698 3.04331 47.6731 2.34375 46.8136 2.34375Z" fill="#AAE1F9"/>
<path d="M38.2547 6.25V2.34375H37.4766C37.0639 2.34375 36.668 2.50837 36.3762 2.8014C36.0844 3.09442 35.9204 3.49185 35.9204 3.90625V13.2812C35.9204 13.6957 36.0844 14.0931 36.3762 14.3861C36.668 14.6791 37.0639 14.8438 37.4766 14.8438H46.8136C47.2263 14.8438 47.6222 14.6791 47.914 14.3861C48.2058 14.0931 48.3698 13.6957 48.3698 13.2812V12.5H44.4794C42.8285 12.5 41.2452 11.8415 40.0778 10.6694C38.9105 9.49732 38.2547 7.9076 38.2547 6.25Z" fill="#57B7EB"/>
<path d="M5.57547 14.8438V9.375H3.24121V21.875H12.5783V19.5312H10.244C9.00583 19.5312 7.81837 19.0374 6.94285 18.1583C6.06733 17.2792 5.57547 16.087 5.57547 14.8438Z" fill="#A1D51C"/>
<path d="M15.7388 33.7229L18.4341 32.1604L21.5464 37.5729C21.7528 37.9318 21.8087 38.3583 21.7019 38.7585C21.5951 39.1588 21.3343 39.5001 20.9768 39.7073C20.6194 39.9145 20.1947 39.9706 19.796 39.8634C19.3974 39.7561 19.0575 39.4943 18.8511 39.1354L15.7388 33.7229Z" fill="#F8664F"/>
<path d="M20.4058 35.5859L18.4373 32.1562L15.7373 33.7187L17.5814 36.9219L18.9275 36.1406L20.4058 35.5859Z" fill="#CC5144"/>
<path d="M32.2251 29.5781L18.9275 34.5781L15.0371 27.8125L26.0004 18.75L32.2251 29.5781Z" fill="#C4F236"/>
<path d="M11.6709 29.7667L15.04 27.8136L18.9304 34.5792L15.5613 36.5323C15.0252 36.8431 14.3881 36.9274 13.7901 36.7665C13.1921 36.6056 12.6823 36.2128 12.3727 35.6745L10.8165 32.9683C10.507 32.43 10.4231 31.7903 10.5833 31.1898C10.7436 30.5894 11.1348 30.0775 11.6709 29.7667Z" fill="#F89C8D"/>
<path d="M9.46337 33.7479L10.811 32.9667L12.3672 35.6729L11.0195 36.4542C10.6621 36.6614 10.2374 36.7175 9.83872 36.6103C9.44007 36.503 9.10017 36.2412 8.89381 35.8823C8.68745 35.5234 8.63152 35.0969 8.73834 34.6967C8.84515 34.2964 9.10595 33.9551 9.46337 33.7479Z" fill="#CC5144"/>
<path d="M19.8299 32.1875C19.7494 32.2177 19.6713 32.2543 19.5965 32.2969L18.1104 33.1562L18.9273 34.5781L32.2248 29.5781L31.2522 27.8906L19.8299 32.1875Z" fill="#A1D51C"/>
<path d="M17.6825 33.4063C17.0634 33.762 16.3587 33.9399 15.6456 33.9206C14.9324 33.9013 14.2383 33.6855 13.6392 33.2967C13.04 32.908 12.5588 32.3614 12.2482 31.7166C11.9376 31.0717 11.8095 30.3536 11.878 29.6406L11.6679 29.7656C11.4021 29.9194 11.1691 30.1243 10.9822 30.3685C10.7954 30.6127 10.6582 30.8916 10.5788 31.1891C10.4993 31.4866 10.479 31.7968 10.519 32.1022C10.559 32.4076 10.6586 32.702 10.812 32.9688L12.3682 35.6719C12.5214 35.9388 12.7254 36.1727 12.9686 36.3604C13.2119 36.548 13.4896 36.6857 13.7859 36.7655C14.0822 36.8453 14.3912 36.8657 14.6953 36.8255C14.9995 36.7853 15.2927 36.6853 15.5584 36.5313L18.9275 34.5781L18.1105 33.1563L17.6825 33.4063Z" fill="#F8664F"/>
<path d="M29.6959 42.1875H28.1398V34.5313C28.1398 34.3241 28.0578 34.1253 27.9119 33.9788C27.7659 33.8323 27.568 33.75 27.3617 33.75C27.1553 33.75 26.9574 33.8323 26.8115 33.9788C26.6656 34.1253 26.5836 34.3241 26.5836 34.5313V42.1875H6.35333V26.5625H12.827C13.0334 26.5625 13.2313 26.4802 13.3772 26.3337C13.5231 26.1872 13.6051 25.9885 13.6051 25.7813C13.6051 25.574 13.5231 25.3753 13.3772 25.2288C13.2313 25.0823 13.0334 25 12.827 25H5.57524C5.36888 25 5.17097 25.0823 5.02505 25.2288C4.87913 25.3753 4.79715 25.574 4.79715 25.7813V42.1875H3.24098C3.03462 42.1875 2.83671 42.2698 2.69079 42.4163C2.54487 42.5628 2.46289 42.7616 2.46289 42.9688V44.5313C2.46289 45.5673 2.87277 46.5608 3.60237 47.2934C4.33197 48.026 5.32152 48.4375 6.35333 48.4375H26.5836C27.6154 48.4375 28.6049 48.026 29.3345 47.2934C30.0641 46.5608 30.474 45.5673 30.474 44.5313V42.9688C30.474 42.7616 30.392 42.5628 30.2461 42.4163C30.1002 42.2698 29.9023 42.1875 29.6959 42.1875ZM28.9178 44.5313C28.9178 45.1529 28.6719 45.749 28.2342 46.1885C27.7964 46.6281 27.2027 46.875 26.5836 46.875H25.0274V46.0938C25.0274 45.8866 24.9454 45.6878 24.7995 45.5413C24.6536 45.3948 24.4557 45.3125 24.2493 45.3125C24.043 45.3125 23.8451 45.3948 23.6991 45.5413C23.5532 45.6878 23.4712 45.8866 23.4712 46.0938V46.875H9.46567V46.0938C9.46567 45.8866 9.3837 45.6878 9.23778 45.5413C9.09186 45.3948 8.89395 45.3125 8.68759 45.3125C8.48123 45.3125 8.28332 45.3948 8.1374 45.5413C7.99148 45.6878 7.9095 45.8866 7.9095 46.0938V46.875H6.35333C5.73424 46.875 5.14051 46.6281 4.70275 46.1885C4.265 45.749 4.01906 45.1529 4.01906 44.5313V43.75H28.9178V44.5313Z" fill="#39519D"/>
<path d="M42.9236 6.25H44.4798C44.6862 6.25 44.8841 6.16769 45.03 6.02118C45.1759 5.87466 45.2579 5.67595 45.2579 5.46875C45.2579 5.26155 45.1759 5.06284 45.03 4.91632C44.8841 4.76981 44.6862 4.6875 44.4798 4.6875H42.9236C42.3046 4.6875 41.7108 4.93443 41.2731 5.37397C40.8353 5.81351 40.5894 6.40965 40.5894 7.03125V7.8125H39.8113C39.6049 7.8125 39.407 7.89481 39.2611 8.04132C39.1152 8.18784 39.0332 8.38655 39.0332 8.59375C39.0332 8.80095 39.1152 8.99966 39.2611 9.14618C39.407 9.29269 39.6049 9.375 39.8113 9.375H40.5894V11.7187C40.5894 11.926 40.6714 12.1247 40.8173 12.2712C40.9632 12.4177 41.1611 12.5 41.3675 12.5C41.5738 12.5 41.7717 12.4177 41.9177 12.2712C42.0636 12.1247 42.1456 11.926 42.1456 11.7187V9.375H42.9236C43.13 9.375 43.3279 9.29269 43.4738 9.14618C43.6197 8.99966 43.7017 8.80095 43.7017 8.59375C43.7017 8.38655 43.6197 8.18784 43.4738 8.04132C43.3279 7.89481 43.13 7.8125 42.9236 7.8125H42.1456V7.03125C42.1456 6.82405 42.2275 6.62534 42.3734 6.47882C42.5194 6.33231 42.7173 6.25 42.9236 6.25Z" fill="#39519D"/>
<path d="M46.8139 1.5625H37.4768C36.8578 1.5625 36.264 1.80943 35.8263 2.24897C35.3885 2.68851 35.1426 3.28465 35.1426 3.90625V5.46875C35.1426 5.67595 35.2246 5.87466 35.3705 6.02118C35.5164 6.16769 35.7143 6.25 35.9207 6.25C36.127 6.25 36.3249 6.16769 36.4709 6.02118C36.6168 5.87466 36.6988 5.67595 36.6988 5.46875V3.90625C36.6988 3.69905 36.7807 3.50034 36.9266 3.35382C37.0726 3.20731 37.2705 3.125 37.4768 3.125H46.8139C47.0202 3.125 47.2182 3.20731 47.3641 3.35382C47.51 3.50034 47.592 3.69905 47.592 3.90625V13.2812C47.592 13.4885 47.51 13.6872 47.3641 13.8337C47.2182 13.9802 47.0202 14.0625 46.8139 14.0625H37.4768C37.2705 14.0625 37.0726 13.9802 36.9266 13.8337C36.7807 13.6872 36.6988 13.4885 36.6988 13.2812V8.59375C36.6988 8.38655 36.6168 8.18784 36.4709 8.04132C36.3249 7.89481 36.127 7.8125 35.9207 7.8125C35.7143 7.8125 35.5164 7.89481 35.3705 8.04132C35.2246 8.18784 35.1426 8.38655 35.1426 8.59375V13.2812C35.1426 13.9029 35.3885 14.499 35.8263 14.9385C36.264 15.3781 36.8578 15.625 37.4768 15.625H46.8139C47.433 15.625 48.0267 15.3781 48.4645 14.9385C48.9022 14.499 49.1481 13.9029 49.1481 13.2812V3.90625C49.1481 3.28465 48.9022 2.68851 48.4645 2.24897C48.0267 1.80943 47.433 1.5625 46.8139 1.5625Z" fill="#39519D"/>
<path d="M39.0332 32.8125C39.0332 33.4306 39.2157 34.0348 39.5577 34.5487C39.8997 35.0626 40.3858 35.4631 40.9545 35.6996C41.5232 35.9361 42.149 35.998 42.7527 35.8775C43.3565 35.7569 43.9111 35.4592 44.3463 35.0222C44.7816 34.5852 45.078 34.0283 45.1981 33.4222C45.3182 32.816 45.2566 32.1876 45.021 31.6166C44.7854 31.0456 44.3865 30.5575 43.8747 30.2142C43.3629 29.8708 42.7611 29.6875 42.1456 29.6875C41.3201 29.6875 40.5285 30.0167 39.9448 30.6028C39.3611 31.1888 39.0332 31.9837 39.0332 32.8125ZM43.7017 32.8125C43.7017 33.1215 43.6105 33.4236 43.4395 33.6806C43.2685 33.9375 43.0254 34.1378 42.7411 34.2561C42.4567 34.3743 42.1438 34.4053 41.842 34.345C41.5401 34.2847 41.2628 34.1359 41.0452 33.9174C40.8275 33.6988 40.6793 33.4204 40.6193 33.1173C40.5592 32.8142 40.5901 32.5001 40.7078 32.2146C40.8256 31.929 41.0251 31.685 41.281 31.5133C41.5369 31.3416 41.8378 31.25 42.1456 31.25C42.5583 31.25 42.9541 31.4146 43.2459 31.7076C43.5378 32.0007 43.7017 32.3981 43.7017 32.8125Z" fill="#39519D"/>
<path d="M46.8139 25.7812H37.4768C36.8578 25.7812 36.264 26.0282 35.8263 26.4677C35.3885 26.9073 35.1426 27.5034 35.1426 28.125V37.5C35.1426 38.1216 35.3885 38.7177 35.8263 39.1573C36.264 39.5968 36.8578 39.8438 37.4768 39.8438H46.8139C47.433 39.8438 48.0267 39.5968 48.4645 39.1573C48.9022 38.7177 49.1481 38.1216 49.1481 37.5V35.9375C49.1481 35.7303 49.0662 35.5316 48.9202 35.3851C48.7743 35.2386 48.5764 35.1563 48.3701 35.1563C48.1637 35.1563 47.9658 35.2386 47.8199 35.3851C47.6739 35.5316 47.592 35.7303 47.592 35.9375V37.5C47.592 37.7072 47.51 37.9059 47.3641 38.0524C47.2182 38.1989 47.0202 38.2813 46.8139 38.2813H37.4768C37.2705 38.2813 37.0726 38.1989 36.9266 38.0524C36.7807 37.9059 36.6988 37.7072 36.6988 37.5V28.125C36.6988 27.9178 36.7807 27.7191 36.9266 27.5726C37.0726 27.4261 37.2705 27.3438 37.4768 27.3438H46.8139C47.0202 27.3438 47.2182 27.4261 47.3641 27.5726C47.51 27.7191 47.592 27.9178 47.592 28.125V32.8125C47.592 33.0197 47.6739 33.2184 47.8199 33.3649C47.9658 33.5114 48.1637 33.5938 48.3701 33.5938C48.5764 33.5938 48.7743 33.5114 48.9202 33.3649C49.0662 33.2184 49.1481 33.0197 49.1481 32.8125V28.125C49.1481 27.5034 48.9022 26.9073 48.4645 26.4677C48.0267 26.0282 47.433 25.7812 46.8139 25.7812Z" fill="#39519D"/>
<path d="M19.9463 10.8203C20.0701 10.8973 20.213 10.9379 20.3587 10.9375C20.4805 10.9367 20.6004 10.9073 20.7088 10.8515L25.3773 8.50777C25.5048 8.44221 25.6117 8.3426 25.6864 8.21992C25.7611 8.09724 25.8006 7.95624 25.8006 7.81245C25.8006 7.66867 25.7611 7.52767 25.6864 7.40499C25.6117 7.28231 25.5048 7.1827 25.3773 7.11714L20.7088 4.77339C20.5903 4.71346 20.4586 4.68493 20.3261 4.6905C20.1936 4.69608 20.0647 4.73557 19.9516 4.80524C19.8386 4.8749 19.7452 4.97243 19.6802 5.08855C19.6153 5.20467 19.581 5.33553 19.5806 5.4687V10.1562C19.5803 10.289 19.6137 10.4196 19.6777 10.5358C19.7417 10.652 19.8341 10.7499 19.9463 10.8203ZM21.1367 6.73433L23.2843 7.81245L21.1367 8.89058V6.73433Z" fill="#39519D"/>
<path d="M21.9149 14.8438C23.2999 14.8438 24.6538 14.4314 25.8054 13.6588C26.957 12.8862 27.8546 11.788 28.3846 10.5032C28.9146 9.21845 29.0533 7.8047 28.7831 6.44077C28.5129 5.07685 27.846 3.824 26.8666 2.84066C25.8872 1.85732 24.6395 1.18766 23.2811 0.916357C21.9227 0.645054 20.5146 0.784296 19.235 1.31648C17.9555 1.84865 16.8618 2.74987 16.0923 3.90615C15.3228 5.06243 14.9121 6.42185 14.9121 7.8125C14.9121 9.67731 15.6499 11.4657 16.9632 12.7843C18.2765 14.103 20.0576 14.8438 21.9149 14.8438ZM21.9149 2.34375C22.9921 2.34375 24.0452 2.66449 24.9409 3.2654C25.8366 3.86632 26.5347 4.72042 26.9469 5.7197C27.3591 6.71899 27.467 7.81857 27.2568 8.8794C27.0467 9.94024 26.5279 10.9147 25.7662 11.6795C25.0045 12.4443 24.034 12.9652 22.9775 13.1762C21.9209 13.3872 20.8258 13.2789 19.8306 12.865C18.8353 12.4511 17.9847 11.7501 17.3862 10.8508C16.7877 9.95145 16.4683 8.89412 16.4683 7.8125C16.4683 6.3621 17.0421 4.9711 18.0636 3.94551C19.085 2.91992 20.4704 2.34375 21.9149 2.34375Z" fill="#39519D"/>
<path d="M29.6961 17.9688C29.8168 17.9688 29.936 17.9405 30.044 17.8863C30.1521 17.832 30.246 17.7533 30.3185 17.6563L32.6528 14.5313C32.7766 14.3655 32.8298 14.1571 32.8006 13.952C32.7714 13.7469 32.6622 13.5618 32.4972 13.4375C32.3321 13.3132 32.1246 13.2598 31.9203 13.2891C31.716 13.3184 31.5317 13.428 31.4078 13.5938L29.0736 16.7188C28.9498 16.8845 28.8966 17.0929 28.9258 17.298C28.955 17.5031 29.0641 17.6882 29.2292 17.8125C29.3639 17.9139 29.5277 17.9688 29.6961 17.9688Z" fill="#39519D"/>
<path d="M31.4076 20.7813C31.48 20.8783 31.574 20.957 31.6821 21.0113C31.7901 21.0655 31.9092 21.0938 32.03 21.0938C32.1984 21.0938 32.3622 21.0389 32.4969 20.9375L35.6092 18.5938C35.7743 18.4694 35.8835 18.2844 35.9126 18.0792C35.9418 17.8741 35.8887 17.6658 35.7648 17.5C35.641 17.3342 35.4567 17.2247 35.2524 17.1954C35.0481 17.1661 34.8406 17.2194 34.6755 17.3438L31.5632 19.6875C31.3981 19.8118 31.289 19.9969 31.2598 20.202C31.2306 20.4071 31.2838 20.6155 31.4076 20.7813Z" fill="#39519D"/>
<path d="M39.0327 22.5C39.0142 22.3964 38.9751 22.2976 38.9176 22.2096C38.8602 22.1216 38.7856 22.0461 38.6984 21.9878C38.6112 21.9294 38.5132 21.8893 38.4102 21.8699C38.3072 21.8506 38.2013 21.8523 38.099 21.875L34.2086 22.6562C34.1064 22.6665 34.0072 22.6968 33.9167 22.7456C33.8262 22.7943 33.7462 22.8605 33.6812 22.9403C33.5498 23.1014 33.4876 23.3084 33.5083 23.5156C33.5289 23.7228 33.6307 23.9133 33.7912 24.0451C33.9517 24.177 34.1578 24.2394 34.3642 24.2187H34.5198L38.4102 23.4375C38.5134 23.4189 38.6117 23.3796 38.6994 23.3219C38.787 23.2642 38.8622 23.1894 38.9203 23.1018C38.9785 23.0143 39.0184 22.9158 39.0377 22.8124C39.057 22.709 39.0553 22.6027 39.0327 22.5Z" fill="#39519D"/>
<path d="M3.24098 22.6562H12.578C12.7844 22.6562 12.9823 22.5739 13.1282 22.4274C13.2741 22.2809 13.3561 22.0822 13.3561 21.875V9.375C13.3561 9.1678 13.2741 8.96909 13.1282 8.82257C12.9823 8.67606 12.7844 8.59375 12.578 8.59375H3.24098C3.03462 8.59375 2.83671 8.67606 2.69079 8.82257C2.54487 8.96909 2.46289 9.1678 2.46289 9.375V21.875C2.46289 22.0822 2.54487 22.2809 2.69079 22.4274C2.83671 22.5739 3.03462 22.6562 3.24098 22.6562ZM4.01906 10.1562H11.7999V21.0938H4.01906V10.1562Z" fill="#39519D"/>
<path d="M9.46561 11.7188H7.90943C7.70307 11.7188 7.50516 11.8011 7.35924 11.9476C7.21332 12.0941 7.13135 12.2928 7.13135 12.5C7.13135 12.7072 7.21332 12.9059 7.35924 13.0524C7.50516 13.1989 7.70307 13.2812 7.90943 13.2812H9.46561C9.67197 13.2812 9.86988 13.1989 10.0158 13.0524C10.1617 12.9059 10.2437 12.7072 10.2437 12.5C10.2437 12.2928 10.1617 12.0941 10.0158 11.9476C9.86988 11.8011 9.67197 11.7188 9.46561 11.7188Z" fill="#39519D"/>
<path d="M9.46563 14.8438H6.35328C6.14692 14.8438 5.94901 14.9261 5.80309 15.0726C5.65717 15.2191 5.5752 15.4178 5.5752 15.625C5.5752 15.8322 5.65717 16.0309 5.80309 16.1774C5.94901 16.3239 6.14692 16.4062 6.35328 16.4062H9.46563C9.67199 16.4062 9.8699 16.3239 10.0158 16.1774C10.1617 16.0309 10.2437 15.8322 10.2437 15.625C10.2437 15.4178 10.1617 15.2191 10.0158 15.0726C9.8699 14.9261 9.67199 14.8438 9.46563 14.8438Z" fill="#39519D"/>
<path d="M9.46563 17.9688H6.35328C6.14692 17.9688 5.94901 18.0511 5.80309 18.1976C5.65717 18.3441 5.5752 18.5428 5.5752 18.75C5.5752 18.9572 5.65717 19.1559 5.80309 19.3024C5.94901 19.4489 6.14692 19.5312 6.35328 19.5312H9.46563C9.67199 19.5312 9.8699 19.4489 10.0158 19.3024C10.1617 19.1559 10.2437 18.9572 10.2437 18.75C10.2437 18.5428 10.1617 18.3441 10.0158 18.1976C9.8699 18.0511 9.67199 17.9688 9.46563 17.9688Z" fill="#39519D"/>
<path d="M29.0113 22.4218C28.9602 22.3326 28.8921 22.2543 28.8109 22.1915C28.7297 22.1286 28.637 22.0825 28.538 22.0556C28.439 22.0288 28.3357 22.0218 28.234 22.035C28.1323 22.0483 28.0343 22.0815 27.9454 22.1328C27.8565 22.1841 27.7785 22.2525 27.7159 22.334C27.6533 22.4156 27.6074 22.5087 27.5806 22.6081C27.5539 22.7075 27.5469 22.8112 27.5601 22.9133C27.5733 23.0153 27.6064 23.1138 27.6575 23.2031L31.0888 29.164L18.6394 33.8515C18.6394 33.8515 18.6394 33.8515 18.585 33.8515H18.5227L16.4997 35.0234L15.1536 35.8047C14.9764 35.9075 14.7807 35.9743 14.5778 36.0011C14.3748 36.0279 14.1686 36.0142 13.9709 35.9609C13.5738 35.8532 13.2353 35.592 13.0294 35.2343L11.4733 32.5312C11.2902 32.1776 11.2486 31.767 11.3571 31.3836C11.4656 31.0002 11.7159 30.6729 12.0568 30.4687L14.749 28.9062L16.6942 32.289C16.7628 32.4083 16.8615 32.5072 16.9804 32.5758C17.0992 32.6444 17.234 32.6802 17.3712 32.6797C17.508 32.6802 17.6426 32.6445 17.7613 32.5762C17.88 32.5078 17.9787 32.4092 18.0473 32.2904C18.116 32.1715 18.1522 32.0366 18.1523 31.8992C18.1525 31.7618 18.1165 31.6268 18.0481 31.5078L16.0406 28.0234L25.8056 19.9375L26.1246 20.4922C26.1757 20.5814 26.2438 20.6597 26.325 20.7225C26.4063 20.7854 26.499 20.8315 26.598 20.8584C26.697 20.8852 26.8003 20.8922 26.9019 20.879C27.0036 20.8657 27.1017 20.8325 27.1906 20.7812C27.2795 20.7299 27.3575 20.6615 27.42 20.58C27.4826 20.4984 27.5286 20.4053 27.5553 20.3059C27.5821 20.2065 27.589 20.1028 27.5759 20.0007C27.5627 19.8987 27.5296 19.8002 27.4785 19.7109L26.7004 18.3593C26.6434 18.2615 26.5658 18.1772 26.4731 18.1125C26.3804 18.0477 26.2748 18.004 26.1635 17.9843C26.0517 17.9632 25.9366 17.9669 25.8264 17.9952C25.7161 18.0236 25.6134 18.0759 25.5255 18.1484L14.6323 27.164L11.3176 29.0859C10.7228 29.4338 10.2596 29.9699 10.0006 30.6102C9.7415 31.2506 9.7012 31.9591 9.88595 32.625L9.10787 33.0703C8.70696 33.3014 8.38345 33.6469 8.17834 34.0629C7.97324 34.4789 7.89578 34.9467 7.95578 35.407C8.01579 35.8672 8.21057 36.2992 8.51541 36.6482C8.82025 36.9972 9.22143 37.2474 9.66809 37.3672C9.8661 37.4198 10.0702 37.4461 10.275 37.4453C10.6843 37.4436 11.0863 37.336 11.4421 37.1328L12.2202 36.6875C12.594 37.0752 13.0641 37.3556 13.5819 37.5C13.8478 37.5746 14.1228 37.6115 14.3989 37.6093C14.9458 37.6106 15.4831 37.465 15.955 37.1875L16.632 36.7968L18.1881 39.5078C18.4974 40.0447 19.006 40.4366 19.6025 40.5976C20.199 40.7587 20.8348 40.6758 21.3705 40.3672C21.6363 40.2134 21.8693 40.0085 22.0562 39.7643C22.2431 39.52 22.3802 39.2412 22.4597 38.9437C22.5392 38.6462 22.5595 38.3359 22.5195 38.0306C22.4794 37.7252 22.3799 37.4307 22.2264 37.164L20.8103 34.6875L32.4816 30.289C32.5875 30.2491 32.6834 30.1865 32.7626 30.1055C32.8419 30.0245 32.9027 29.9272 32.9407 29.8203C32.9785 29.7146 32.9933 29.602 32.9839 29.4901C32.9745 29.3782 32.9412 29.2696 32.8862 29.1718L29.0113 22.4218ZM10.6329 35.7734C10.5443 35.8248 10.4465 35.8582 10.345 35.8716C10.2435 35.885 10.1404 35.8782 10.0416 35.8515C9.84222 35.7995 9.67154 35.6703 9.56694 35.4922C9.51571 35.4032 9.48247 35.305 9.46912 35.2031C9.45577 35.1012 9.46257 34.9977 9.48913 34.8984C9.51569 34.7986 9.56169 34.7052 9.62446 34.6234C9.68723 34.5416 9.76553 34.4731 9.85483 34.4218L10.5318 34.0312L11.3099 35.3828L10.6329 35.7734ZM20.8725 37.9609C20.9238 38.0499 20.957 38.1481 20.9704 38.25C20.9837 38.3519 20.9769 38.4554 20.9504 38.5547C20.8949 38.7533 20.7634 38.9218 20.5847 39.0234C20.4069 39.1259 20.1961 39.1539 19.998 39.1012C19.7998 39.0486 19.6304 38.9195 19.5265 38.7422L17.9703 36.0312L19.2619 35.289H19.3242L20.8725 37.9609Z" fill="#39519D"/>
</svg>
